<?xml version="1.0" encoding="UTF-8" standalone="no"?>
<svg
   xmlns:dc="http://purl.org/dc/elements/1.1/"
   xmlns:cc="http://creativecommons.org/ns#"
   xmlns:rdf="http://www.w3.org/1999/02/22-rdf-syntax-ns#"
   xmlns:svg="http://www.w3.org/2000/svg"
   xmlns="http://www.w3.org/2000/svg"
   xmlns:xlink="http://www.w3.org/1999/xlink"
   xmlns:sodipodi="http://sodipodi.sourceforge.net/DTD/sodipodi-0.dtd"
   xmlns:inkscape="http://www.inkscape.org/namespaces/inkscape"
   sodipodi:docname="tiltcomp.svg"
   xml:space="preserve"
   viewBox="0 0 330 329.99998"
   y="0px"
   x="0px"
   id="Layer_1"
   version="1.1"
   inkscape:version="1.0.2 (e86c870, 2021-01-15)"
   width="330"
   height="330"><metadata
   id="metadata153"><rdf:RDF><cc:Work
       rdf:about=""><dc:format>image/svg+xml</dc:format><dc:type
         rdf:resource="http://purl.org/dc/dcmitype/StillImage" /><dc:title></dc:title></cc:Work></rdf:RDF></metadata><defs
   id="defs151">
	
	
	
	
	
	
	
	
	
	
	
	
	
	
</defs><sodipodi:namedview
   pagecolor="#ffffff"
   bordercolor="#cccccc"
   borderopacity="1"
   objecttolerance="10"
   gridtolerance="10"
   guidetolerance="10"
   inkscape:pageopacity="0"
   inkscape:pageshadow="2"
   inkscape:window-width="1364"
   inkscape:window-height="750"
   id="namedview149"
   showgrid="false"
   inkscape:pagecheckerboard="true"
   inkscape:zoom="1.6339314"
   inkscape:cx="124.5723"
   inkscape:cy="147.91546"
   inkscape:window-x="0"
   inkscape:window-y="16"
   inkscape:window-maximized="0"
   inkscape:current-layer="g456"
   inkscape:document-rotation="0"
   fit-margin-top="-15.6"
   fit-margin-left="0"
   fit-margin-right="0"
   fit-margin-bottom="-1.1"
   lock-margins="true"
   inkscape:snap-global="false" />
<style
   type="text/css"
   id="style116">
	.st0{fill:#404040;}
</style>
<g
   id="g456"
   transform="matrix(0.59125045,0,0,0.59125045,-235.26189,-438.01703)"
   inkscape:label="dethele"
   style="display:inline"
   inkscape:groupmode="layer"><path
     id="path24058"
     style="color:#000000;font-style:normal;font-variant:normal;font-weight:normal;font-stretch:normal;font-size:medium;line-height:normal;font-family:sans-serif;font-variant-ligatures:normal;font-variant-position:normal;font-variant-caps:normal;font-variant-numeric:normal;font-variant-alternates:normal;font-variant-east-asian:normal;font-feature-settings:normal;font-variation-settings:normal;text-indent:0;text-align:start;text-decoration:none;text-decoration-line:none;text-decoration-style:solid;text-decoration-color:#000000;letter-spacing:normal;word-spacing:normal;text-transform:none;writing-mode:lr-tb;direction:ltr;text-orientation:mixed;dominant-baseline:auto;baseline-shift:baseline;text-anchor:start;white-space:normal;shape-padding:0;shape-margin:0;inline-size:0;clip-rule:nonzero;display:inline;overflow:visible;visibility:visible;opacity:0.501824;isolation:auto;mix-blend-mode:normal;color-interpolation:sRGB;color-interpolation-filters:linearRGB;solid-color:#000000;solid-opacity:1;vector-effect:none;fill:#000000;fill-opacity:1;fill-rule:nonzero;stroke:none;stroke-width:0.59125;stroke-linecap:butt;stroke-linejoin:miter;stroke-miterlimit:4;stroke-dasharray:none;stroke-dashoffset:0;stroke-opacity:1;color-rendering:auto;image-rendering:auto;shape-rendering:auto;text-rendering:auto;enable-background:accumulate;stop-color:#000000"
     inkscape:label="kronetekst"
     d="m 165.00391,94.658203 c -4.3678,0 -8.63789,0.421259 -12.78907,1.189453 l 3.11914,17.476564 c -0.73455,0.17956 -1.41965,0.4137 -2.13867,0.60351 1.07309,-0.24518 2.1622,-0.44045 3.25977,-0.61914 l -3.13281,-17.603512 c 1.892,-0.295625 3.84379,-0.531609 5.79492,-0.708984 l -1.65625,18.150386 c -0.10987,0.022 -0.24988,0.0444 -0.37305,0.0664 2.5874,-0.38906 5.2162,-0.6543 7.91602,-0.6543 0.27576,0 0.54168,0.0368 0.8164,0.041 l 0.0117,-17.919922 c -0.2769,-0.0032 -0.55048,-0.02148 -0.82812,-0.02148 z m 5.03906,0.201172 1.69141,18.173825 c 1.18704,0.15095 2.37285,0.30689 3.5332,0.53516 -0.18305,-0.038 -0.35685,-0.0882 -0.54102,-0.125 l 3.13282,-17.560548 c 3.66575,0.650376 7.21279,1.654859 10.70117,2.896485 l -6.14844,16.732423 c -0.24021,-0.0858 -0.4891,-0.14509 -0.73047,-0.22656 0.83377,0.27772 1.65449,0.58268 2.46875,0.90039 -0.20703,-0.0817 -0.40734,-0.18057 -0.61523,-0.25977 L 189.625,99.134766 c 1.32302,0.493327 2.61071,1.064794 3.89648,1.636714 -7.27214,-3.24758 -15.16958,-5.318634 -23.47851,-5.912105 z m 1.60937,0.136719 c 1.65551,0.177375 3.30935,0.354765 4.96485,0.65039 l -3.07422,17.619136 c -0.0591,0 -0.0595,5.4e-4 -0.17774,-0.0586 z m -27.20507,2.742187 c -0.22462,0.06894 -0.44821,0.139807 -0.67188,0.210938 0.22353,-0.07129 0.44714,-0.141935 0.67188,-0.210938 z m -2.92969,0.976563 c -1.94863,0.693938 -3.82931,1.519926 -5.69531,2.376956 1.49421,-0.69034 3.00694,-1.354437 4.55273,-1.957034 l 6.14844,16.791014 c -0.11021,0.041 -0.21076,0.0931 -0.32032,0.13477 0.63497,-0.24263 1.27125,-0.48076 1.91797,-0.69922 -0.17502,0.0559 -0.35821,0.0934 -0.5332,0.15039 z m -7.31446,3.160156 c -1.18686,0.58245 -2.37303,1.1604 -3.52148,1.80664 1.1482,-0.63066 2.33104,-1.22477 3.52148,-1.80664 z m 63.31055,0.82617 c 0.41722,0.21576 0.84413,0.41849 1.25586,0.64063 -0.41134,-0.22647 -0.83959,-0.4222 -1.25586,-0.64063 z m 2.12695,1.16992 -8.89062,15.42188 c 0.3483,0.19582 0.68018,0.41565 1.02344,0.61914 l 8.88672,-15.41992 c -0.34267,-0.20297 -0.67319,-0.42381 -1.01954,-0.6211 z m -69.30273,0.0195 c -0.35285,0.20123 -0.69003,0.4257 -1.03906,0.63282 l 8.92969,15.39258 c 0.35795,-0.21228 0.70296,-0.44256 1.0664,-0.64649 z m 71.5957,1.37696 c 1.09884,0.68325 2.19838,1.36447 3.25391,2.10547 -1.05811,-0.74071 -2.15458,-1.42254 -3.25391,-2.10547 z m -74.96484,0.67383 c -0.57543,0.37225 -1.16082,0.72682 -1.72461,1.11523 0.5628,-0.38806 1.14965,-0.74339 1.72461,-1.11523 z m 79.16992,2.14453 c 1.21942,0.88774 2.42971,1.78908 3.58985,2.75586 l -11.41407,13.58984 c 1.54612,1.26908 2.99692,2.64422 4.38672,4.08008 l 12.57813,-12.57813 c -0.64529,-0.661 -1.32161,-1.28648 -1.99219,-1.92187 l -13.90625,11.01953 11.25195,-13.43164 c -1.44472,-1.23674 -2.95217,-2.3952 -4.49414,-3.51367 z m -84.94531,2.0039 c -0.61761,0.49402 -1.22182,0.9996 -1.82227,1.51368 l 8.64649,10.29492 -10.65039,-8.47461 c -0.4147,0.38336 -0.84851,0.74558 -1.25391,1.13867 l 14.0957,11.20117 c 0.4866,-0.43144 0.94659,-0.8914 1.44922,-1.30469 L 120.21289,110.8418 c 0.31675,-0.26396 0.65931,-0.49389 0.98047,-0.75196 z m 55.48828,3.80469 c 0.96515,0.21789 1.9195,0.46245 2.86328,0.73242 -0.93949,-0.26829 -1.89841,-0.51069 -2.86328,-0.73242 z m -60.80664,0.88672 c -0.65895,0.64478 -1.27869,1.3242 -1.91211,1.99414 l 11.03906,13.93164 -13.45703,-11.27344 c -1.02882,1.20471 -1.98845,2.4638 -2.93554,3.73633 0.72225,-0.96518 1.43036,-1.94183 2.20312,-2.86914 l 13.59766,11.41992 c 1.25865,-1.53566 2.61983,-2.97954 4.04296,-4.36132 z m 99.625,1.39453 -11.20117,14.0957 c 0.4372,0.49473 0.8999,0.96535 1.31836,1.47657 l 13.65429,-11.41797 c -0.2493,-0.30219 -0.5329,-0.57315 -0.7871,-0.8711 l -10.29297,8.64649 8.47265,-10.65039 c -0.39075,-0.42416 -0.76315,-0.86483 -1.16406,-1.2793 z m -28.71289,1.125 c 0.38852,0.17679 0.76904,0.36682 1.15234,0.55274 -0.38383,-0.18626 -0.76387,-0.37563 -1.15234,-0.55274 z m -43.77734,0.10156 c -0.16039,0.0745 -0.31918,0.15441 -0.47852,0.23047 0.16011,-0.0757 0.31751,-0.15632 0.47852,-0.23047 z m -35.75391,7.57618 c -0.60064,0.86321 -1.15244,1.75784 -1.71484,2.64843 0.56289,-0.88929 1.11369,-1.78783 1.71484,-2.64843 z m -2.7793,4.39843 c -0.20325,0.34356 -0.4255,0.67424 -0.62304,1.02149 l 15.41406,8.88281 c -0.0223,0.0395 -0.0403,0.0815 -0.0625,0.12109 0.2168,-0.38862 0.46508,-0.75628 0.6914,-1.13867 z m 121.08399,0.0469 -15.35938,8.85156 c -0.40316,-0.68361 -0.85472,-1.33285 -1.28906,-1.99414 0.64817,0.99196 1.26258,2.00738 1.84375,3.04492 l 15.42187,-8.88672 c -0.19598,-0.34505 -0.41556,-0.6742 -0.61718,-1.01562 z m 0.99804,1.64062 c 0.34186,0.62825 0.6568,1.27888 0.98438,1.91993 -0.32949,-0.64001 -0.63601,-1.29142 -0.98438,-1.91993 z m -123.33984,0.37696 c -0.0619,0.11338 -0.11447,0.23194 -0.17578,0.3457 0.0604,-0.11396 0.11489,-0.23217 0.17578,-0.3457 z m 103.56445,1.86718 c 0.51864,0.68399 1.05587,1.35261 1.54102,2.0625 -0.48948,-0.70936 -1.01441,-1.38523 -1.54102,-2.0625 z m 22.52539,3.33203 c 0.38545,0.85586 0.75805,1.71904 1.11524,2.5918 -0.34744,-0.87724 -0.73387,-1.73208 -1.11524,-2.5918 z m -128.69921,0.18555 c -0.43242,0.98258 -0.859976,1.96546 -1.248052,2.97071 0.386118,-1.00459 0.816522,-1.98791 1.248052,-2.97071 z m -1.490239,3.58203 c -1.569364,4.18217 -2.746521,8.55263 -3.496094,13.06446 l 17.613283,3.07226 c 0,0.0591 5.3e-4,0.0595 -0.0586,0.17774 l -18.199214,1.71289 c -0.04972,0.53271 -0.08536,1.06944 -0.123047,1.60547 l 18.167971,-1.68946 c 0.12764,-1.01622 0.27259,-2.02657 0.45703,-3.02344 -0.002,0.0119 -0.005,0.0232 -0.008,0.0352 l -17.619144,-3.07617 c 0.650375,-3.66571 1.654858,-7.21282 2.896484,-10.70117 l 16.77734,6.08594 c 0.25898,-0.74416 0.51759,-1.48857 0.8086,-2.2168 -0.14089,0.34867 -0.30566,0.68786 -0.43946,1.03906 z m 131.796879,0.0684 -16.75391,6.07617 c -0.1105,-0.27948 -0.26352,-0.51761 -0.37695,-0.79296 1.34592,3.42973 2.32282,7.039 2.92578,10.7832 l 17.66015,-3.12891 c -0.0658,-0.39394 -0.13663,-0.786 -0.20898,-1.17773 l -17.51563,3.12695 c -0.473,-2.66061 -1.18343,-5.20427 -2.07031,-7.6875 l 16.71875,-6.14453 c -0.12531,-0.35216 -0.24815,-0.70511 -0.3789,-1.05469 z m -112.77344,0.9961 c -0.35566,0.70878 -0.70528,1.41754 -1.0293,2.14257 0.32297,-0.72598 0.67482,-1.43466 1.0293,-2.14257 z m 113.33984,0.60742 c 0.4523,1.28791 0.85674,2.60213 1.23047,3.93164 -0.37346,-1.32655 -0.78211,-2.63771 -1.23047,-3.93164 z m 1.56641,5.11133 c 0.35825,1.3648 0.66612,2.74935 0.95117,4.14062 -0.27666,-1.39494 -0.59292,-2.77626 -0.95117,-4.14062 z m 1.35742,6.41797 c 0.27774,1.80584 0.50532,3.65919 0.67578,5.51757 -0.15518,-1.86049 -0.37759,-3.70031 -0.67578,-5.51757 z m -138.808594,0.004 c -0.249657,1.52204 -0.453848,3.05669 -0.603515,4.60938 0.164815,-1.53637 0.335379,-3.07301 0.603515,-4.60938 z M 216.75,156.79492 c 0.41821,2.67946 0.69727,5.40599 0.69727,8.20703 0,0.27906 -0.0367,0.54819 -0.041,0.82617 h 17.91992 c 0.003,-0.27624 0.0215,-0.54918 0.0215,-0.82617 0,-1.95311 -0.1023,-3.8832 -0.25977,-5.79687 l -18.20508,-1.6543 c -0.0444,-0.22211 -0.0884,-0.49207 -0.13281,-0.75586 z m -122.070312,7.46289 c -0.0026,0.24889 -0.01953,0.49466 -0.01953,0.74414 10e-7,1.99266 0.103726,3.96058 0.267578,5.91211 l 18.189454,1.6543 c 0.0591,0.29562 0.11861,0.64916 0.17773,1.00391 l -17.640621,3.1289 c 0.06632,0.39318 0.13808,0.78481 0.210937,1.17578 l 17.488284,-3.12109 c 0.473,2.66063 1.18343,5.20229 2.07031,7.68555 l -16.677734,6.1289 c 0.128188,0.35856 0.256792,0.7164 0.390625,1.07227 l 16.759759,-6.07813 c 0.16753,0.41388 0.35545,0.8143 0.52735,1.22461 -2.47388,-6.10321 -3.86328,-12.77206 -3.86328,-19.78711 0,-0.24806 0.0337,-0.48715 0.0371,-0.73437 z m 140.466792,5.78907 -18.17578,1.70507 c -0.369,2.89325 -0.94087,5.72026 -1.75781,8.44336 0.53155,-1.77292 0.99922,-3.57031 1.37305,-5.43945 l 17.5664,3.06445 c 0.069,-0.37218 0.13611,-0.74495 0.19922,-1.11914 l -17.58789,-3.1289 c 0,-0.0591 -5.3e-4,-0.0575 0.0586,-0.17579 l 18.19726,-1.71289 c 0.0516,-0.54316 0.0879,-1.0901 0.12695,-1.63671 z m -140.183589,1.30859 c 0.142303,1.57589 0.327015,3.13888 0.572265,4.68359 -0.22791,-1.53951 -0.421597,-3.10695 -0.572265,-4.68359 z m 140.039059,0.57031 c -0.14638,1.40819 -0.31677,2.77575 -0.53711,4.14063 0.21776,-1.36805 0.39994,-2.74795 0.53711,-4.14063 z m -1.06054,7.06641 c -0.0965,0.48432 -0.2179,0.9609 -0.32618,1.4414 0.10834,-0.48062 0.22779,-0.95716 0.32618,-1.4414 z m -18.99805,2.07422 c -1.47888,4.63319 -3.57844,8.97897 -6.20703,12.94531 0.47685,-0.72132 0.96476,-1.44052 1.40625,-2.16992 l 15.34961,8.84961 c 0.21234,-0.35807 0.44229,-0.70432 0.64843,-1.06641 l -15.34765,-8.8457 c 1.30075,-2.30588 2.42314,-4.73159 3.36914,-7.21485 l 16.71484,6.0625 c 0.13785,-0.36683 0.27049,-0.73578 0.40235,-1.10547 l -16.76172,-6.08007 c 0.16151,-0.45224 0.27924,-0.91849 0.42578,-1.375 z m 17.5,3.875 c -0.22077,0.73131 -0.448,1.46049 -0.69141,2.18554 0.24113,-0.72399 0.47347,-1.45144 0.69141,-2.18554 z M 97.722656,185.5 c 0.08031,0.2625 0.16279,0.52395 0.246094,0.78516 -0.08319,-0.26125 -0.166025,-0.52228 -0.246094,-0.78516 z m 19.378904,0.86133 c 0.28664,0.64223 0.60026,1.27456 0.91211,1.90429 -0.31134,-0.63064 -0.62566,-1.25944 -0.91211,-1.90429 z m -17.541013,4.35156 c 0.35969,0.91055 0.760043,1.79777 1.156253,2.68945 -0.3991,-0.88852 -0.787677,-1.78282 -1.156253,-2.68945 z m 19.755863,0.0723 -15.42188,8.88867 c 0.19632,0.34418 0.41526,0.67312 0.61719,1.01367 l 15.3457,-8.8457 c 0.50729,0.86018 1.06444,1.68556 1.6211,2.50976 -0.77534,-1.15087 -1.47828,-2.35244 -2.16211,-3.5664 z m 2.17968,3.59179 c 0.83316,1.23187 1.71271,2.42445 2.65625,3.5586 -0.92824,-1.1518 -1.82677,-2.32893 -2.65625,-3.5586 z m 86.91016,0.14453 c -2.0165,2.96727 -4.34749,5.69603 -6.91602,8.18164 l 12.57813,12.57813 c 0.66235,-0.64654 1.28914,-1.32416 1.92578,-1.99609 l -10.99609,-13.875 13.40234,11.22851 c 0.25526,-0.29812 0.54067,-0.56871 0.79102,-0.87109 L 205.58984,198.3457 c 0.99182,-1.20434 1.9222,-2.50096 2.81641,-3.82422 z M 102.57617,197.25 c 0.28019,0.53939 0.53839,1.08991 0.83203,1.62109 -0.28745,-0.53139 -0.55476,-1.08059 -0.83203,-1.62109 z m 21.88672,1.10156 -13.64844,11.41406 c 0.24976,0.30169 0.53442,0.5717 0.78907,0.86915 l 10.26562,-8.62305 -8.45117,10.61914 c 0.39204,0.42421 0.7638,0.86676 1.16601,1.28125 l 11.20118,-14.0957 c -0.43686,-0.49219 -0.90401,-0.95624 -1.32227,-1.46485 z m 2.92383,3.22852 -12.57813,12.57812 c 0.63835,0.65169 1.31163,1.26394 1.97461,1.89063 l 13.83594,-10.96289 -11.19531,13.36328 c 0.2998,0.25615 0.5709,0.54374 0.875,0.79492 l 11.41797,-13.6543 c -1.5237,-1.24925 -2.95788,-2.5985 -4.33008,-4.00976 z m 72.33984,2.72461 c -0.47188,0.41684 -0.9174,0.86191 -1.40429,1.26172 l 11.41601,13.65234 c 0.30358,-0.25104 0.57376,-0.53893 0.87305,-0.79492 l -8.57031,-10.20313 10.55664,8.39844 c 0.4055,-0.37426 0.82796,-0.72972 1.22461,-1.11328 z m -1.77344,1.53711 c -1.15649,0.93274 -2.3372,1.83681 -3.57226,2.66992 1.23675,-0.83796 2.43437,-1.72056 3.57226,-2.66992 z m -3.59765,2.68554 c -1.34025,0.90296 -2.72901,1.73926 -4.1543,2.51758 0.18009,-0.099 0.36756,-0.18205 0.54688,-0.2832 l 8.86718,15.38476 c 0.35305,-0.20091 0.68984,-0.426 1.03907,-0.63281 l -8.8418,-15.34179 c 0.87188,-0.51419 1.7081,-1.07964 2.54297,-1.64454 z m -56.4082,1.39063 c 0.10045,0.0615 0.19835,0.13255 0.29882,0.19336 l -8.85547,15.42578 c 0.34284,0.20273 0.67303,0.42405 1.01954,0.62109 l 8.84179,-15.33593 c 2.30588,1.30075 4.72964,2.42314 7.21289,3.36914 l -6.05468,16.69531 c 0.34994,0.13132 0.70214,0.25695 1.05468,0.38281 l 6.12305,-16.66406 c 2.48325,0.88687 5.02492,1.53819 7.68555,2.07031 l -3.11719,17.46875 c 0.41384,0.077 0.82783,0.15498 1.24414,0.22461 l 3.11523,-17.51562 c 0.0591,0 0.0595,-5.4e-4 0.17774,0.0586 l 1.70508,18.11133 c 0.53262,0.05 1.06952,0.085 1.60547,0.12304 l -1.69141,-18.16992 c -7.39308,-0.93448 -14.27716,-3.3962 -20.36523,-7.05859 z m 51.73046,1.39648 c -1.28041,0.68057 -2.59002,1.31384 -3.93164,1.88867 1.34259,-0.57731 2.65502,-1.20454 3.93164,-1.88867 z m -4.51757,2.13672 c -6.20007,2.56725 -13.00296,3.99414 -20.15625,3.99414 -0.25862,0 -0.50792,-0.0354 -0.76563,-0.0391 l -0.01,17.91992 c 0.25944,0.003 0.51529,0.0195 0.77539,0.0195 1.98426,0 3.94517,-0.10313 5.88867,-0.26562 l 1.64648,-18.10938 c 0.35475,0 0.64916,-0.0581 1.00391,-0.11718 l 3.11523,17.50586 c 0.37434,-0.0629 0.7468,-0.13236 1.11914,-0.20118 l -3.11132,-17.42382 c 2.66062,-0.47301 5.20424,-1.18344 7.6875,-2.07032 l 6.11132,16.63282 c 0.37617,-0.1338 0.75179,-0.2682 1.125,-0.40821 l -6.05468,-16.75586 c 0.55885,-0.20794 1.08202,-0.45655 1.625,-0.68164 z"
     transform="matrix(1.6913306,0,0,1.6913306,397.90564,740.83162)" /><path
     style="color:#000000;font-style:normal;font-variant:normal;font-weight:normal;font-stretch:normal;font-size:medium;line-height:normal;font-family:sans-serif;font-variant-ligatures:normal;font-variant-position:normal;font-variant-caps:normal;font-variant-numeric:normal;font-variant-alternates:normal;font-variant-east-asian:normal;font-feature-settings:normal;font-variation-settings:normal;text-indent:0;text-align:start;text-decoration:none;text-decoration-line:none;text-decoration-style:solid;text-decoration-color:#000000;letter-spacing:normal;word-spacing:normal;text-transform:none;writing-mode:lr-tb;direction:ltr;text-orientation:mixed;dominant-baseline:auto;baseline-shift:baseline;text-anchor:start;white-space:normal;shape-padding:0;shape-margin:0;inline-size:0;clip-rule:nonzero;display:inline;overflow:visible;visibility:visible;opacity:0.394208;isolation:auto;mix-blend-mode:normal;color-interpolation:sRGB;color-interpolation-filters:linearRGB;solid-color:#000000;solid-opacity:1;vector-effect:none;fill:#ffffff;fill-opacity:1;fill-rule:nonzero;stroke:none;stroke-width:15.4657;stroke-linecap:butt;stroke-linejoin:miter;stroke-miterlimit:4;stroke-dasharray:none;stroke-dashoffset:0;stroke-opacity:1;color-rendering:auto;image-rendering:auto;shape-rendering:auto;text-rendering:auto;enable-background:accumulate;stop-color:#000000"
     d="m 854.83112,1019.9012 c 0,98.2275 -79.62888,177.856 -177.85592,177.856 -98.22704,0 -177.85592,-79.6285 -177.85592,-177.856 0,-98.2275 79.62888,-177.85592 177.85592,-177.85592 98.22704,0 177.85592,79.62842 177.85592,177.85592 z"
     id="path35"
     inkscape:label="baggrundshvid" /><path
     id="path142"
     style="color:#000000;font-style:normal;font-variant:normal;font-weight:normal;font-stretch:normal;font-size:medium;line-height:normal;font-family:sans-serif;font-variant-ligatures:normal;font-variant-position:normal;font-variant-caps:normal;font-variant-numeric:normal;font-variant-alternates:normal;font-variant-east-asian:normal;font-feature-settings:normal;font-variation-settings:normal;text-indent:0;text-align:start;text-decoration:none;text-decoration-line:none;text-decoration-style:solid;text-decoration-color:#000000;letter-spacing:normal;word-spacing:normal;text-transform:none;writing-mode:lr-tb;direction:ltr;text-orientation:mixed;dominant-baseline:auto;baseline-shift:baseline;text-anchor:start;white-space:normal;shape-padding:0;shape-margin:0;inline-size:0;clip-rule:nonzero;display:inline;overflow:visible;visibility:visible;isolation:auto;mix-blend-mode:normal;color-interpolation:sRGB;color-interpolation-filters:linearRGB;solid-color:#000000;solid-opacity:1;vector-effect:none;fill:#000000;fill-opacity:1;fill-rule:nonzero;stroke:none;stroke-width:0.59125;stroke-linecap:butt;stroke-linejoin:miter;stroke-miterlimit:4;stroke-dasharray:none;stroke-dashoffset:0;stroke-opacity:1;color-rendering:auto;image-rendering:auto;shape-rendering:auto;text-rendering:auto;enable-background:accumulate;stop-color:#000000"
     inkscape:label="Krone"
     d="m 164.14258,41.191406 -1.89063,20.695313 C 107.85692,63.30572 63.807486,107.11579 61.974609,161.39258 l -20.751953,1.89258 c 0,0.53212 -0.05859,1.12412 -0.05859,1.65625 v 0.82812 l 0.05859,0.006 v 0.0527 l 18.136719,1.65626 2.498047,0.23632 c 1.419001,54.39481 45.171898,98.44252 99.507808,100.27539 l 1.89063,20.75196 c 0.53212,0 1.12412,0.0605 1.65625,0.0605 h 0.0586 0.76953 0.0586 l 1.89062,-20.69531 c 54.39504,-1.419 98.44447,-45.22907 100.27735,-99.50586 l 20.75195,-1.89258 c 0,-0.53212 0.0586,-1.12412 0.0586,-1.65625 v -0.82812 l -0.0586,-0.006 v -0.0527 l -18.13672,-1.65626 -2.49805,-0.23632 C 266.66499,107.88444 222.9121,63.836743 168.57618,62.003866 l -1.89062,-20.751953 c -0.53213,0 -1.12413,-0.06055 -1.65625,-0.06055 h -0.0586 -0.76953 z m 1.71484,9.826172 3.93555,42.277344 c 0.0334,0.0024 0.0714,0.0072 0.10547,0.0098 l 0.002,0.01367 c -0.0359,-0.0025 -0.0715,-0.0054 -0.10742,-0.0078 l 0.14453,1.542969 c 0.0782,0.0055 0.15612,0.01211 0.23438,0.01758 8.26142,0.605672 16.11531,2.669713 23.3496,5.900389 1.35837,0.60422 2.6828,1.25256 3.99219,1.92969 0.41627,0.21843 0.84452,0.41416 1.25586,0.64063 0.26582,0.1434 0.54388,0.27196 0.81055,0.41406 l -0.0488,0.0859 c 0.34647,0.197 0.67667,0.41835 1.01953,0.62109 l 0.0156,-0.0273 c 0.0312,0.0189 0.0623,0.038 0.0937,0.0566 l 0.0215,-0.0352 c 0.42927,0.25438 0.8291,0.54762 1.25195,0.81055 1.09933,0.68293 2.1958,1.36476 3.25391,2.10547 0.3244,0.22773 0.63086,0.4797 0.95117,0.71289 1.33479,0.96819 2.63564,1.97634 3.90039,3.02929 0.15702,0.14793 0.31441,0.29536 0.47852,0.43555 l 0.0215,-0.0273 c 0.0307,0.0261 0.0632,0.05 0.0937,0.0762 l 0.041,-0.0488 c 0.91213,0.74112 1.71517,1.48689 2.5664,2.33399 l -0.082,0.0664 c 0.66297,0.62667 1.3363,1.23895 1.97461,1.89063 l 0.0254,-0.0254 c 0.0395,0.04 0.0818,0.0769 0.1211,0.11718 l 0.89453,-0.89453 c -0.0414,-0.0425 -0.0777,-0.0768 -0.11914,-0.11914 l 0.0293,-0.0293 c 0.0394,0.04 0.0818,0.077 0.1211,0.11719 l 0.18359,-0.18359 c 0.0337,0.0351 0.068,0.0723 0.10156,0.10742 l -0.16211,0.20313 c 0.57946,0.59422 1.16011,1.18867 1.71876,1.80273 0.0592,0.012 0.14672,-0.008 0.24218,-0.0371 0.40653,0.4588 0.81188,0.91645 1.26563,1.44336 0.0349,0.0408 0.1001,0.0526 0.18164,0.0508 -0.43713,-0.51678 -0.88496,-1.02225 -1.33008,-1.53125 0.005,-0.002 0.009,-0.002 0.0137,-0.004 -0.23725,-0.27053 -0.47117,-0.54692 -0.70898,-0.81446 l 9.81445,-12.29883 c 0.29563,-0.35475 0.23498,-0.82742 -0.0605,-1.12304 -0.0184,-0.0184 -0.0443,-0.0249 -0.0645,-0.041 -0.0196,-0.0243 -0.0303,-0.0538 -0.0527,-0.0762 -0.29563,-0.29563 -0.82743,-0.2961 -1.12305,0.0586 l -11.64844,10.28711 c -0.35836,-0.33441 -0.74002,-0.66115 -1.10742,-0.99414 -0.006,0.0503 -0.0133,0.10798 0.01,0.12891 0.21956,0.20099 0.3998,0.37914 0.60351,0.57031 -0.0276,0.14919 -0.0347,0.2769 0.002,0.36133 -10.91451,-10.39832 -25.03905,-17.402618 -40.71484,-19.271489 0.0125,-0.01054 0.0246,-0.01612 0.0371,-0.02734 -0.26143,-0.02851 -0.52339,-0.04758 -0.78516,-0.07227 0.55814,0.05225 1.04927,0.08976 1.66797,0.148437 0.0491,0.0059 0.0995,-0.01708 0.15039,-0.05078 -0.93048,-0.121943 -1.86332,-0.226772 -2.79687,-0.294922 L 169.87695,74.65625 c 20.30949,1.0594 38.86836,8.827409 53.4961,21.130859 18.77717,15.857031 31.04836,39.194391 32.17773,65.369141 l -18.69336,-1.76367 c -0.0994,-1.1899 -0.23386,-2.36871 -0.38867,-3.53906 -0.1458,0.0543 -0.25006,0.10118 -0.24609,0.13086 0.0387,0.28986 0.0556,0.51109 0.0879,0.77929 -0.0203,0.0286 -0.0408,0.0573 -0.0391,0.084 0.0414,0.6376 0.0687,1.12427 0.10352,1.68164 -0.11001,-1.12964 -0.25058,-2.2506 -0.41211,-3.36524 -2.03746,-14.62788 -8.45819,-27.83062 -17.91601,-38.22656 -0.0407,-0.008 -0.075,-0.0246 -0.0996,-0.0508 -0.0827,-0.088 -0.19504,-0.2019 -0.28321,-0.29492 -0.48183,-0.52818 -0.96206,-1.05856 -1.45898,-1.57227 l -0.84766,1.06836 c 0.40217,0.41453 0.77396,0.85703 1.16602,1.28125 l 0.0293,-0.0371 c 0.0372,0.041 0.0738,0.0824 0.11133,0.12305 l 0.0371,-0.0469 c 0.60457,0.6174 1.16315,1.27746 1.71875,1.88868 l -0.082,0.0683 c 0.25465,0.29746 0.53932,0.56743 0.78906,0.86915 l 0.0332,-0.0273 c 0.0364,0.0416 0.0761,0.0803 0.11132,0.12305 l 0.0215,-0.0176 c 2.32271,2.80087 4.4175,5.77093 6.28125,8.91602 l -0.14453,0.084 c 0.20191,0.34056 0.42089,0.6695 0.61719,1.01367 l 0.0469,-0.0254 c 0.0275,0.0465 0.0573,0.0916 0.084,0.13867 l 0.002,-0.002 c 0.11942,0.22904 0.23098,0.46497 0.35351,0.69141 0.29362,0.53118 0.55184,1.08169 0.83203,1.62109 0.6479,1.26291 1.27197,2.53981 1.85938,3.84766 0.3962,0.89166 0.79659,1.77892 1.15625,2.68945 0.14509,0.35688 0.31495,0.69917 0.45508,1.05859 l -0.0312,0.0117 c 0.13386,0.35588 0.26244,0.71373 0.39062,1.07227 l 0.0547,-0.0195 c 0.27192,0.75112 0.47847,1.53783 0.72266,2.30468 0.0833,0.26122 0.16574,0.52264 0.24609,0.78516 0.75798,2.48869 1.42659,5.02195 1.92773,7.61133 l -0.0703,0.0117 c 0.0728,0.39099 0.1446,0.7826 0.21094,1.17578 l 0.0371,-0.006 c 0.0343,0.21811 0.0497,0.44838 0.082,0.66797 0.24525,1.5447 0.42995,3.10767 0.57227,4.68359 0.0142,0.14929 0.0417,0.29407 0.0547,0.44336 h -0.0195 c 0.16384,1.95154 0.26758,3.91948 0.26758,5.91211 0,0.24951 -0.0172,0.49522 -0.0195,0.74414 h 0.0664 c -6e-4,0.028 -0.002,0.0559 -0.002,0.084 h 1.32813 c 2.4e-4,-0.0281 0.001,-0.056 0.002,-0.084 h 0.006 c -1e-5,0.0268 -7e-5,0.0529 0,0.084 h 42.79492 l -42.82812,3.98633 c -0.002,0.0306 -0.007,0.0631 -0.01,0.0937 l -0.0195,0.002 c -0.0127,0.23048 -0.0435,0.52795 -0.0606,0.77343 -0.0195,0.17865 -0.034,0.35303 -0.0547,0.53321 0.0371,-0.46571 0.0783,-0.92975 0.10546,-1.39844 l -1.5039,0.14062 c -0.0378,0.53603 -0.0733,1.07282 -0.12305,1.60547 h 0.0117 c -0.008,0.0716 -0.0197,0.14331 -0.0273,0.21485 -0.14971,1.55268 -0.35383,3.08732 -0.60352,4.60937 -0.008,0.0479 -0.0112,0.095 -0.0195,0.14258 h -0.006 c -0.74953,4.51183 -1.92674,8.8823 -3.49609,13.06445 l 0.0137,0.006 c -0.077,0.20629 -0.17687,0.40196 -0.25586,0.60742 -0.38804,1.00525 -0.81567,1.98811 -1.24805,2.97071 -0.75491,1.71924 -1.5638,3.39852 -2.43359,5.03906 -0.0613,0.11376 -0.11388,0.2323 -0.17578,0.3457 -0.19014,0.35444 -0.35677,0.72748 -0.55078,1.07813 l -0.0313,-0.0176 c -0.002,0.003 -0.004,0.006 -0.006,0.01 l -0.0469,-0.0274 c -0.19754,0.34724 -0.41977,0.67791 -0.62305,1.02149 l 0.0488,0.0273 c -0.007,0.0118 -0.0145,0.0233 -0.0215,0.0352 h 0.002 c -0.34478,0.57729 -0.735,1.1207 -1.09375,1.6875 -0.5624,0.8906 -1.11419,1.78521 -1.71484,2.64843 -0.43138,0.61756 -0.90245,1.20576 -1.35352,1.8086 -0.94706,1.27249 -1.90671,2.53165 -2.93555,3.73633 l 0.0234,0.0195 c -0.76862,0.946 -1.53695,1.77328 -2.42383,2.66015 l -0.0176,-0.0215 c -0.63341,0.66994 -1.25317,1.34932 -1.91211,1.99414 l 0.0293,0.0293 c -0.009,0.009 -0.0181,0.0183 -0.0273,0.0273 l 1.11719,1.11719 0.92773,0.92773 -1.03125,-0.82031 c 0.0133,-0.0128 0.0277,-0.0243 0.041,-0.0371 l -1.29493,-1.0293 c -0.40542,0.39307 -0.8392,0.75531 -1.2539,1.13867 l 0.0371,0.0293 c -0.004,0.004 -0.009,0.008 -0.0137,0.0117 l 0.0137,0.0117 c -0.64293,0.64132 -1.34166,1.22678 -1.98438,1.81055 l -0.0156,-0.0176 c -0.004,0.003 -0.008,0.006 -0.0117,0.01 l -0.0293,-0.0352 c -0.60047,0.51409 -1.20464,1.01962 -1.82226,1.51367 -1.31554,1.05704 -2.66117,2.07502 -4.05078,3.0332 -0.56382,0.38839 -1.14921,0.74299 -1.72461,1.11524 -0.76425,0.49428 -1.50531,1.01876 -2.29102,1.48437 l -0.0391,-0.0664 c -0.34902,0.20711 -0.68621,0.43161 -1.03906,0.63281 l 0.0156,0.0254 c -0.11659,0.0648 -0.24231,0.11926 -0.35937,0.18359 -1.14845,0.64624 -2.33461,1.22414 -3.52149,1.80664 -0.53898,0.26341 -1.07229,0.53056 -1.61914,0.78321 -1.86599,0.85701 -3.74667,1.683 -5.69531,2.37695 l 0.0195,0.0527 c -0.74202,0.26873 -1.51989,0.47131 -2.27734,0.71289 -0.22367,0.0711 -0.44726,0.142 -0.67188,0.21094 -2.51795,0.7731 -5.08302,1.45322 -7.70508,1.96289 l -0.0117,-0.0684 c -0.0162,0.003 -0.0326,0.005 -0.0488,0.008 l -0.002,-0.0117 c -2.62722,0.48619 -5.30633,0.81449 -8.02344,1.0039 -0.56183,0.0393 -1.12243,0.0844 -1.6875,0.11133 -1.02054,0.046 -2.04639,0.0742 -3.07812,0.0742 -0.2377,0 -0.47263,-0.0119 -0.70898,-0.0176 -0.0397,-9.6e-4 -0.0793,-0.003 -0.11914,-0.004 v 1.14062 c 0.0154,0 0.067,0.003 0.11914,0.006 v 0.004 c -0.0403,-0.001 -0.0806,-0.004 -0.1211,-0.004 l -0.0234,42.51367 -3.93554,-42.27734 c -0.0334,-0.002 -0.0714,-0.007 -0.10547,-0.01 l -0.002,-0.0137 c 0.0359,0.002 0.0715,0.005 0.10742,0.008 l -0.14453,-1.54297 c -0.0782,-0.006 -0.15612,-0.0121 -0.23438,-0.0176 -8.2614,-0.6057 -16.11531,-2.66967 -23.34961,-5.90039 -1.35834,-0.6042 -2.6828,-1.25259 -3.99219,-1.92969 -0.41624,-0.21847 -0.84452,-0.41418 -1.25585,-0.64063 -0.26579,-0.14341 -0.54389,-0.27195 -0.81055,-0.41406 l 0.0488,-0.0859 c -0.34651,-0.19704 -0.6767,-0.41836 -1.01954,-0.62109 l -0.0156,0.0273 c -0.0313,-0.0189 -0.0623,-0.038 -0.0937,-0.0566 l -0.0215,0.0352 c -0.42925,-0.25436 -0.8291,-0.54762 -1.25196,-0.81055 -1.09931,-0.68289 -2.1958,-1.36475 -3.2539,-2.10547 -0.32442,-0.22775 -0.6309,-0.4797 -0.95118,-0.71289 -1.33479,-0.96819 -2.63563,-1.97635 -3.90039,-3.02929 -0.15701,-0.14792 -0.31442,-0.29535 -0.47851,-0.43555 l -0.0215,0.0273 c -0.0306,-0.0261 -0.0631,-0.05 -0.0937,-0.0762 l -0.041,0.0488 c -0.91214,-0.74111 -1.71517,-1.48689 -2.56641,-2.33399 l 0.082,-0.0664 c -0.66298,-0.62669 -1.33626,-1.23894 -1.97461,-1.89063 l -0.0254,0.0254 c -0.0395,-0.04 -0.0818,-0.0769 -0.12109,-0.11718 l -0.89453,0.89453 c 0.0415,0.0425 0.0777,0.0768 0.11914,0.11914 l -0.0293,0.0293 c -0.0394,-0.04 -0.0818,-0.0771 -0.12109,-0.11719 l -0.1836,0.18359 c -0.0336,-0.0351 -0.068,-0.0723 -0.10156,-0.10742 l 0.16211,-0.20313 c -0.57948,-0.5942 -1.16014,-1.18866 -1.71875,-1.80273 -0.0592,-0.0118 -0.14673,0.008 -0.24219,0.0371 -0.40652,-0.4588 -0.81188,-0.91644 -1.26562,-1.44336 -0.0351,-0.0407 -0.10009,-0.0526 -0.18164,-0.0508 0.43712,0.5168 0.88495,1.02226 1.33008,1.53125 -0.005,0.002 -0.009,0.002 -0.0137,0.004 0.23727,0.2705 0.47113,0.54692 0.70899,0.81446 l -9.81445,12.29883 c -0.29563,0.35475 -0.23496,0.82742 0.0605,1.12304 0.0184,0.0184 0.0443,0.0249 0.0645,0.041 0.0196,0.0243 0.0303,0.0538 0.0527,0.0762 0.29563,0.29563 0.82742,0.29618 1.12305,-0.0586 l 11.64843,-10.28711 c 0.35836,0.33446 0.74002,0.66114 1.10743,0.99414 0.003,-0.0501 0.0133,-0.10798 -0.01,-0.12891 -0.21956,-0.20099 -0.3998,-0.37914 -0.60351,-0.57031 0.0276,-0.14911 0.0348,-0.2769 -0.002,-0.36133 10.9145,10.3983 25.03907,17.40264 40.71485,19.27149 -0.0125,0.0105 -0.0246,0.0161 -0.0371,0.0273 0.26144,0.0285 0.52337,0.0476 0.78515,0.0723 -0.55813,-0.0525 -1.04923,-0.0897 -1.66797,-0.14843 -0.049,-0.005 -0.0995,0.0169 -0.15039,0.0508 0.93051,0.12196 1.86333,0.22674 2.79688,0.29492 l 1.76562,18.69336 C 139.76577,254.28491 121.21593,246.52451 106.5918,234.23242 87.800915,218.375 75.520479,195.02978 74.390625,168.84375 l 18.693359,1.76367 c 0.09939,1.18989 0.233854,2.36872 0.388672,3.53906 0.145803,-0.0544 0.250055,-0.10117 0.246094,-0.13086 -0.0387,-0.28986 -0.05563,-0.51109 -0.08789,-0.77929 0.02027,-0.0286 0.0408,-0.0573 0.03906,-0.084 -0.04151,-0.63764 -0.06873,-1.12424 -0.103516,-1.68164 -0.149434,-1.53442 -0.233927,-3.08584 -0.287109,-4.64453 -4.36e-4,-0.2766 -0.0022,-0.57273 -0.002,-0.87109 0.01609,0.37319 0.03636,0.65768 0.05273,1.0039 0.03312,1.12681 0.09156,2.24637 0.175781,3.35938 0.0217,0.36174 0.03723,0.77874 0.06055,1.15234 0.111565,1.14558 0.255383,2.28198 0.419922,3.41211 2.0446,14.60928 8.462352,27.7948 17.910152,38.17969 0.0408,0.008 0.075,0.0248 0.0996,0.0508 0.0646,0.0687 0.15276,0.15867 0.22071,0.23047 0.50103,0.55056 1.00212,1.10183 1.51953,1.63672 l 0.84765,-1.06836 c -0.40221,-0.41449 -0.77397,-0.85704 -1.16601,-1.28125 l -0.0273,0.0352 c -0.0369,-0.0406 -0.0742,-0.0808 -0.11132,-0.1211 l -0.0391,0.0469 c -0.60457,-0.6174 -1.16315,-1.27751 -1.71875,-1.88868 l 0.082,-0.0684 c -0.25465,-0.29745 -0.53931,-0.56746 -0.78907,-0.86915 l -0.0332,0.0254 c -0.0358,-0.041 -0.0747,-0.0791 -0.10937,-0.1211 l -0.0215,0.0176 c -2.32302,-2.80109 -4.41924,-5.77058 -6.2832,-8.91602 l 0.14453,-0.084 c -0.20193,-0.34055 -0.42087,-0.66949 -0.61719,-1.01367 l -0.0449,0.0254 c -0.0275,-0.0465 -0.0573,-0.0916 -0.084,-0.13867 l -0.004,0.002 c -0.11941,-0.22904 -0.23101,-0.46494 -0.35352,-0.69141 -0.29364,-0.53118 -0.55184,-1.0817 -0.83203,-1.62109 -0.64786,-1.26292 -1.27195,-2.53984 -1.85937,-3.84766 -0.39621,-0.89168 -0.796563,-1.7789 -1.156253,-2.68945 -0.145074,-0.35685 -0.314962,-0.69916 -0.455078,-1.05859 l 0.03125,-0.0117 c -0.133833,-0.35587 -0.262437,-0.71371 -0.390625,-1.07227 l -0.05469,0.0195 c -0.0018,-0.005 -0.0021,-0.0106 -0.0039,-0.0156 -0.269268,-0.74654 -0.476176,-1.52733 -0.71875,-2.28906 -0.0833,-0.26121 -0.165779,-0.52266 -0.246094,-0.78516 -0.758008,-2.48868 -1.426568,-5.02197 -1.927734,-7.61133 l 0.07031,-0.0117 c -0.07286,-0.39097 -0.144614,-0.7826 -0.210937,-1.17578 l -0.03711,0.006 c -0.03408,-0.2181 -0.04953,-0.44839 -0.08203,-0.66797 -0.24525,-1.54471 -0.429962,-3.1077 -0.572265,-4.68359 -0.01426,-0.14927 -0.04112,-0.29407 -0.05469,-0.44336 l 0.01953,0.002 c -0.163852,-1.95153 -0.267577,-3.91945 -0.267578,-5.91211 0,-0.24948 0.01692,-0.49525 0.01953,-0.74414 h -0.0625 c 6.02e-4,-0.0287 0.0016,-0.0572 0.002,-0.0859 h -1.328125 c -1.8e-4,0.0288 -0.003,0.0573 -0.0039,0.0859 h -0.0078 c 1.4e-5,-0.0273 5.4e-5,-0.0541 0,-0.0859 H 50.482422 l 42.828125,-3.98633 c 0.0024,-0.0306 0.0072,-0.0631 0.0098,-0.0937 l 0.02148,-0.002 c 0.01364,-0.24967 0.0455,-0.57014 0.06445,-0.83789 0.01994,-0.18089 0.0357,-0.35672 0.05664,-0.53906 0.08913,-1.13411 0.204313,-2.25971 0.345703,-3.37695 -0.04652,-0.0525 -0.136596,-0.11319 -0.226563,-0.17383 -0.10933,0.79115 -0.197436,1.59725 -0.285156,2.4043 -0.03074,0.29308 -0.07602,0.57505 -0.103516,0.87109 l -18.802734,1.77344 c 0.07572,-1.45161 0.186617,-2.8952 0.330078,-4.32813 6.5e-5,-6.4e-4 -6.4e-5,-0.001 0,-0.002 0.07178,-0.71678 0.151804,-1.43077 0.240235,-2.14258 0.177021,-1.42361 0.38637,-2.83575 0.628906,-4.23828 6.669737,-38.56945 37.80941,-68.863271 76.79493,-74.294922 2.83564,-0.394436 5.71202,-0.659628 8.625,-0.785156 l -1.77539,18.802734 c -0.001,1.42e-4 -0.003,-1.42e-4 -0.004,0 -0.70744,0.04549 -1.40741,0.107703 -2.10156,0.181641 0.0539,0.04043 0.10497,0.063 0.15234,0.0625 -0.40255,0.05204 -0.80398,0.09793 -1.20703,0.152344 0.0369,0.02633 0.0727,0.03694 0.10937,0.06055 -15.79798,1.919495 -29.98321,8.949909 -40.87304,19.402339 -0.12473,0.11761 -0.25505,0.22916 -0.37891,0.34766 0.74637,-0.73821 1.47778,-1.45517 2.73633,-2.66797 0.0467,-0.0449 0.0734,-0.11129 0.0937,-0.18555 -0.64393,0.55548 -1.28587,1.11162 -1.92383,1.6836 l -12.29687,-9.81446 c -0.35475,-0.29562 -0.82938,-0.23519 -1.125,0.0605 -0.29563,0.29562 -0.29409,0.82742 0.0605,1.12305 l 10.28711,11.64648 c -0.62903,0.65002 -1.23054,1.31751 -1.82031,1.99219 0.10909,-0.006 0.1921,-0.0278 0.23828,-0.0742 0.65141,-0.65897 0.99148,-0.99977 1.43555,-1.44727 -10.07601,10.57438 -16.868478,24.25933 -18.8086,39.58985 0.05057,0.0571 0.08085,0.11177 0.07422,0.1582 -0.176839,1.23772 -0.308946,2.25248 -0.419921,3.21875 -0.03845,0.48929 -0.08276,0.97647 -0.111329,1.46875 l 1.503907,-0.14062 c 0.03768,-0.53603 0.07333,-1.07276 0.123047,-1.60547 l -0.01172,0.002 c 0.0077,-0.0716 0.01967,-0.14327 0.02734,-0.21484 0.149667,-1.55269 0.353858,-3.08734 0.603515,-4.60938 0.0083,-0.0476 0.01104,-0.095 0.01953,-0.14258 l 0.0059,0.002 c 0.749573,-4.51183 1.92673,-8.88229 3.496094,-13.06446 l -0.01367,-0.004 c 0.07694,-0.20633 0.176878,-0.40196 0.255859,-0.60742 0.388076,-1.00525 0.815628,-1.98813 1.248048,-2.97071 0.75486,-1.71924 1.5638,-3.39851 2.43359,-5.03906 0.0613,-0.11376 0.11386,-0.23232 0.17578,-0.3457 0.19118,-0.35649 0.35921,-0.73161 0.55469,-1.08399 l 0.0273,0.0156 c 7.2e-4,-0.001 0.001,-0.003 0.002,-0.004 l 0.0508,0.0293 c 0.19754,-0.34725 0.41979,-0.67793 0.62304,-1.02149 l -0.0508,-0.0293 c 0.34967,-0.59007 0.74941,-1.14276 1.11524,-1.72071 0.5624,-0.89059 1.1142,-1.78522 1.71484,-2.64843 0.43138,-0.61757 0.90244,-1.20581 1.35352,-1.8086 0.94707,-1.27253 1.90672,-2.53162 2.93554,-3.73633 l -0.0234,-0.0195 c 0.76863,-0.946 1.53696,-1.77328 2.42383,-2.66015 l 0.0176,0.0215 c 0.63342,-0.66994 1.25316,-1.34936 1.91211,-1.99414 l -0.0332,-0.0332 c 0.0105,-0.0103 0.0207,-0.021 0.0312,-0.0312 l -1.11719,-1.11524 v -0.002 c 0,0 -0.002,0 -0.002,0 l -0.92579,-0.92578 1.03321,0.82031 c -0.014,0.0134 -0.029,0.0256 -0.043,0.0391 l 1.29492,1.0293 c 0.4054,-0.39309 0.83921,-0.75531 1.25391,-1.13867 l -0.0391,-0.0293 c 0.005,-0.005 0.0105,-0.009 0.0156,-0.0137 l -0.0117,-0.01 c 0.643,-0.64128 1.34165,-1.22677 1.98438,-1.81054 l 0.0137,0.0156 c 0.004,-0.003 0.006,-0.007 0.01,-0.01 l 0.0312,0.0371 c 0.60045,-0.51408 1.20466,-1.01966 1.82227,-1.51368 1.31551,-1.05704 2.66113,-2.07501 4.05078,-3.0332 0.56379,-0.38841 1.14918,-0.74298 1.72461,-1.11523 0.76422,-0.49425 1.50531,-1.01877 2.29102,-1.48438 l 0.0391,0.0664 c 0.34903,-0.20712 0.68621,-0.43159 1.03906,-0.63282 l -0.0156,-0.0254 c 0.1166,-0.0648 0.2423,-0.11929 0.35937,-0.18359 1.14845,-0.64624 2.33464,-1.22419 3.52148,-1.80664 0.53899,-0.26345 1.07231,-0.53056 1.61915,-0.7832 1.866,-0.85703 3.74668,-1.683015 5.69531,-2.376953 l -0.0195,-0.05273 c 0.74206,-0.268677 1.51987,-0.4713 2.27734,-0.71289 0.22367,-0.07113 0.44726,-0.141997 0.67188,-0.210938 2.518,-0.773115 5.08303,-1.453214 7.70507,-1.96289 l 0.0117,0.06641 c 0.0162,-0.003 0.0326,-0.0048 0.0488,-0.0078 l 0.002,0.01367 c 2.75379,-0.5096 5.56376,-0.848695 8.41602,-1.03125 0.4161,-0.02711 0.83017,-0.06376 1.24805,-0.08398 1.03589,-0.04743 2.07757,-0.07422 3.125,-0.07422 0.27764,0 0.55122,0.01825 0.82812,0.02148 v -1.140626 c -0.0152,-4.73e-4 -0.067,-0.0017 -0.11914,-0.0039 v -0.0039 c 0.0396,0.0013 0.0793,0.0034 0.11914,0.0039 z m 16.91016,14.060547 c 14.78483,2.650668 28.45333,8.414703 40.30664,16.701172 l -2.82227,4.052734 C 208.99475,77.93431 195.97602,72.387352 181.95508,69.892578 Z m -35.56836,0.01758 0.86133,4.771485 c -14.06219,2.481562 -27.11864,8.035066 -38.40625,15.949218 l -2.74414,-3.945312 c 11.80002,-8.319013 25.48477,-14.107166 40.28906,-16.775391 z m 22.14648,5.068359 c 24.5867,1.152502 46.764,11.671087 63.02149,28.052735 0.006,0.0062 0.0134,0.01136 0.0195,0.01758 16.19983,16.382911 26.50542,38.615761 27.41992,63.218741 l -2.83984,-0.29101 c -0.92809,-22.2633 -9.78941,-42.50614 -23.82227,-57.9707 -0.92731,-1.02192 -1.87596,-2.0265 -2.84765,-3.00586 -0.96692,-0.976255 -1.95739,-1.928828 -2.9668,-2.861327 -15.33742,-14.168798 -35.48674,-23.196591 -57.69531,-24.31836 z m -7.99414,0.06445 -0.2832,2.773437 C 113.59095,74.95308 75.279064,112.97092 72.914062,160.33008 l -2.771484,0.28125 C 72.510899,111.52411 112.20478,72.06611 161.35156,70.228516 Z m -79.511716,36.710936 3.945312,2.74414 C 77.871833,120.9707 72.31929,134.02858 69.837891,148.08984 l -4.771485,-0.86132 c 2.609748,-14.74525 8.454496,-28.43015 16.773438,-40.28907 z m 166.355466,0.0176 c 8.28562,11.8528 14.04677,25.52077 16.69727,40.30469 l -4.81446,0.87109 c -2.49494,-14.02008 -8.04208,-27.04018 -15.93945,-38.29687 z m -83.25976,5.5957 c -7.15331,0 -13.95616,1.42694 -20.15625,3.99415 -0.196,0.0814 -0.39171,0.1645 -0.58594,0.24804 -1.34161,0.57482 -2.65123,1.20814 -3.93164,1.88867 -0.17294,0.0927 -0.35127,0.17488 -0.52344,0.26953 -1.42527,0.77833 -2.81405,1.61463 -4.1543,2.51758 -0.006,0.006 -0.0117,0.006 -0.0176,0.01 0,0 -0.005,0.006 -0.008,0.006 -1.23506,0.83313 -2.41584,1.73716 -3.57226,2.66992 -0.11737,0.0978 -0.2471,0.18222 -0.36328,0.28125 l -0.006,-0.006 c -0.4869,0.3998 -0.93242,0.84489 -1.4043,1.26172 l 0.0391,0.0312 c -0.0144,0.0129 -0.0285,0.0262 -0.043,0.0391 l 23.70313,18.83594 0.002,0.002 4.07813,8.2168 c -0.82775,0.47299 -1.65574,1.065 -2.36524,1.65625 l -27.17773,-27.17969 c -2.56851,2.48556 -4.89956,5.21439 -6.91602,8.18164 -0.11381,0.16845 -0.21809,0.34037 -0.33008,0.50977 -2.62858,3.96634 -4.72819,8.31209 -6.20703,12.94531 -0.0928,0.28918 -0.18226,0.57996 -0.26953,0.87109 -0.81693,2.72313 -1.38881,5.55014 -1.75781,8.44336 l 0.0703,-0.006 c -0.005,0.0372 -0.0109,0.0741 -0.0156,0.11133 l 30.83984,-2.87109 8.13867,4.07031 c -0.58027,1.40654 -0.98648,2.9829 -1.04492,4.61914 H 112.5332 c -0.006,0.27795 -0.041,0.5471 -0.041,0.82617 0,2.80105 0.27907,5.52761 0.69726,8.20703 0.0148,0.0873 0.0301,0.16179 0.0449,0.25 h -0.006 c 0.60295,3.74422 1.57985,7.35348 2.92578,10.78321 0.91839,2.22943 1.89494,4.36757 3.05273,6.41992 l -0.0234,0.0137 c 0.58114,1.03753 1.19557,2.05298 1.84375,3.04492 0.19819,0.30178 0.3832,0.61353 0.58789,0.91016 0.48513,0.70991 1.02244,1.37848 1.54102,2.0625 0.39844,0.51238 0.77369,1.04513 1.19336,1.53711 l -0.0273,0.0234 c 0.41848,0.51125 0.88118,0.9818 1.31835,1.47656 l 0.0293,-0.0371 c 0.0387,0.0427 0.077,0.0858 0.11524,0.12891 l 18.78711,-23.64258 8.30468,-4.12305 c 0.45879,0.7812 1.01013,1.55864 1.56836,2.22852 l -27.20703,27.20508 c 1.38979,1.43585 2.8406,2.81101 4.38672,4.08007 l 0.0254,-0.0312 c 0.0225,0.0185 0.0439,0.0382 0.0664,0.0566 l 0.0254,-0.0293 c 1.92035,1.58147 4.05925,3.04331 6.20508,4.35742 0.0776,0.0467 0.15846,0.0885 0.23632,0.13476 l -0.0176,0.0312 c 0.34328,0.20351 0.67513,0.42332 1.02343,0.61914 v -0.006 c 0.91502,0.51616 1.85999,0.98307 2.8086,1.44335 0.3833,0.18595 0.76377,0.37596 1.15234,0.55274 0.86825,0.39584 1.74919,0.7651 2.63672,1.11523 0.81427,0.31774 1.63497,0.62262 2.46875,0.90039 0.7056,0.23816 1.41941,0.45334 2.13672,0.65821 0.94375,0.26996 1.89818,0.51454 2.86328,0.73242 0.47129,0.10826 0.93568,0.22684 1.41406,0.32617 1.16033,0.22828 2.34615,0.38421 3.5332,0.53516 v -0.002 c 0.0368,0.005 0.0726,0.0129 0.10938,0.0176 l -2.86133,-30.75 4.13867,-8.27734 c 1.38345,0.57643 2.93773,0.97599 4.54883,1.05078 l -0.0215,38.39453 c 0.0407,8.8e-4 0.0807,0.004 0.12109,0.006 v 0.006 c 0.23535,0.004 0.4644,0.03 0.69922,0.0352 0.0223,4.8e-4 0.044,0.004 0.0664,0.004 7.15329,0 13.95618,-1.42689 20.15625,-3.99414 0.19605,-0.0813 0.39173,-0.16454 0.58593,-0.24805 1.34162,-0.57481 2.65123,-1.2081 3.93164,-1.88867 0.17297,-0.0927 0.35128,-0.17488 0.52344,-0.26953 1.42529,-0.77832 2.81405,-1.61462 4.1543,-2.51758 0.006,-0.004 0.0121,-0.006 0.0176,-0.01 0.003,-0.002 0.005,-0.004 0.008,-0.006 1.23506,-0.83311 2.41579,-1.73718 3.57226,-2.66992 0.11733,-0.0979 0.24713,-0.18218 0.36329,-0.28125 l 0.006,0.006 c 0.48689,-0.39981 0.93241,-0.84488 1.40429,-1.26172 l -0.0391,-0.0312 c 0.0141,-0.0126 0.0288,-0.0246 0.043,-0.0371 l -23.70117,-18.83399 -4.08203,-8.22265 c 0.82775,-0.473 1.65573,-1.065 2.36523,-1.65625 l 27.17773,27.17968 c 2.56853,-2.48559 4.89952,-5.21437 6.91602,-8.18164 0.11381,-0.16841 0.21808,-0.34035 0.33008,-0.50976 2.62859,-3.96634 4.72815,-8.31212 6.20703,-12.94531 0.0928,-0.2892 0.18224,-0.57995 0.26953,-0.8711 0.81694,-2.7231 1.38881,-5.55011 1.75781,-8.44336 l -0.0703,0.006 c 0.005,-0.0373 0.0109,-0.074 0.0156,-0.11133 l -30.83985,2.8711 -8.13867,-4.07031 c 0.58027,-1.40654 0.98649,-2.98289 1.04492,-4.61915 h 38.42383 c 0.004,-0.27796 0.041,-0.54711 0.041,-0.82617 0,-2.80104 -0.27906,-5.52757 -0.69727,-8.20703 -0.0147,-0.0873 -0.0302,-0.16178 -0.0449,-0.25 l 0.006,-0.002 c -0.60296,-3.7442 -1.57986,-7.35347 -2.92578,-10.7832 -0.91841,-2.22943 -1.89498,-4.36758 -3.05274,-6.41993 l 0.0234,-0.0137 c -0.58117,-1.03754 -1.19558,-2.05296 -1.84375,-3.04492 -0.1982,-0.30175 -0.3832,-0.61352 -0.58789,-0.91016 -0.48515,-0.70989 -1.02238,-1.37851 -1.54102,-2.0625 -0.39839,-0.51237 -0.77371,-1.04511 -1.19336,-1.53711 l 0.0273,-0.0234 c -0.41846,-0.51122 -0.88116,-0.98184 -1.31836,-1.47657 l -0.0293,0.0371 c -0.0384,-0.0424 -0.0773,-0.0842 -0.11523,-0.12695 l -18.78711,23.64258 -8.30274,4.12305 c -0.45903,-0.78198 -1.01153,-1.55994 -1.57031,-2.23047 l 27.20703,-27.20508 c -1.3898,-1.43586 -2.8406,-2.811 -4.38672,-4.08008 l -0.0273,0.0332 c -0.0221,-0.0182 -0.0423,-0.0385 -0.0645,-0.0566 l -0.0254,0.0293 c -1.92033,-1.58148 -4.05926,-3.04331 -6.20508,-4.35742 -0.0776,-0.0467 -0.15847,-0.0885 -0.23633,-0.13477 l 0.0176,-0.0332 c -0.34326,-0.20349 -0.67514,-0.42332 -1.02344,-0.61914 l -0.002,0.004 c -0.91501,-0.51617 -1.86004,-0.98306 -2.8086,-1.44336 -0.3833,-0.18592 -0.76382,-0.37595 -1.15234,-0.55274 -0.86828,-0.39586 -1.7492,-0.76506 -2.63672,-1.11523 -0.81426,-0.31771 -1.63498,-0.62267 -2.46875,-0.90039 -0.70561,-0.23817 -1.4194,-0.45336 -2.13672,-0.65821 -0.94378,-0.26997 -1.89813,-0.51453 -2.86328,-0.73242 -0.47128,-0.1083 -0.93566,-0.22684 -1.41406,-0.32617 -1.16035,-0.22827 -2.34618,-0.38421 -3.5332,-0.53516 v 0.004 c -0.0361,-0.005 -0.0713,-0.0111 -0.10743,-0.0156 l 2.86133,30.75 -4.13867,8.27735 c -1.38405,-0.57669 -2.93892,-0.97821 -4.55078,-1.05274 l 0.0215,-38.39648 c -0.0401,-5.8e-4 -0.0794,-0.004 -0.11914,-0.006 v -0.002 c -0.25772,-0.006 -0.50701,-0.0391 -0.76562,-0.0391 z m -7.96094,4.64063 -2.41016,25.75391 -19.84961,-15.74024 c 6.34848,-5.10985 13.92341,-8.58151 22.25977,-10.01367 z m 16.80469,0.0937 c 7.29031,1.34431 13.99429,4.35928 19.79297,8.53516 0.003,0.002 0.006,0.005 0.01,0.008 0.78847,0.57941 1.55996,1.1796 2.31055,1.80273 l -19.70117,15.64258 z m -46.07032,16.80469 15.62305,19.67382 -25.99023,2.41211 c 1.54963,-8.27922 5.13897,-15.85428 10.36718,-22.08593 z m 75.14649,0.65429 c 5.08585,6.35814 8.59687,13.9343 9.94726,22.27149 l -25.69921,-2.40625 z m -37.82617,19.61133 c 2.92639,0 5.5764,1.17433 7.50781,3.07617 1.90185,1.93141 3.07614,4.58142 3.07617,7.50782 0,5.9125 -4.78867,10.70117 -10.70117,10.70117 -2.92639,0 -5.57641,-1.17433 -7.50781,-3.07617 -1.90185,-1.93141 -3.07617,-4.58142 -3.07618,-7.50782 0,-5.9125 4.78867,-10.70117 10.70118,-10.70117 z m 71.3457,4.17383 c 0.14933,1.53379 0.23395,3.08455 0.28711,4.64258 4.4e-4,0.27722 0.002,0.57396 0.002,0.87305 -0.0148,-0.34271 -0.0338,-0.6022 -0.0488,-0.92188 -0.0335,-1.18614 -0.0954,-2.36431 -0.18554,-3.53516 -0.02,-0.33276 -0.0333,-0.7154 -0.0547,-1.05859 z m -166.240234,10.01563 2.839843,0.29101 c 0.928086,22.26332 9.789409,42.50614 23.822266,57.9707 0.927308,1.02192 1.875958,2.0265 2.847656,3.00586 15.658709,15.80993 36.991909,25.9841 60.662109,27.17969 l 0.28906,2.8418 c -24.58719,-1.15253 -46.76585,-11.67051 -63.023434,-28.05274 -0.0058,-0.006 -0.01174,-0.0117 -0.01758,-0.0176 C 81.354847,215.3827 71.049267,193.1499 70.134766,168.54688 Z m 189.664064,0.84179 c -2.36832,49.0872 -42.0622,88.54522 -91.20899,90.38281 l 0.28321,-2.77343 c 47.47741,-1.95113 85.78929,-39.96897 88.15429,-87.32813 z m -4.25,0.40039 c -2.34827,45.0179 -37.7085,81.43745 -82.27149,85.5 -0.002,1.8e-4 -0.004,-1.7e-4 -0.006,0 -1.43696,0.13091 -2.88454,0.2282 -4.33984,0.29102 l 1.77344,-18.80274 c 0.70944,-0.0453 1.41129,-0.10753 2.10742,-0.18164 -0.0539,-0.0404 -0.10474,-0.0652 -0.15234,-0.0644 0.40184,-0.052 0.80274,-0.0961 1.20507,-0.15039 -0.0364,-0.026 -0.0712,-0.0372 -0.10742,-0.0606 15.74496,-1.91305 29.88639,-8.90437 40.76172,-19.29883 0.15053,-0.14133 0.30776,-0.27534 0.45703,-0.41796 -0.73719,0.72894 -1.46006,1.43686 -2.70312,2.63476 -0.0465,0.0448 -0.0734,0.11127 -0.0937,0.18555 0.64398,-0.55546 1.28586,-1.11162 1.92383,-1.6836 l 12.29687,9.81446 c 0.35475,0.29562 0.82938,0.23518 1.125,-0.0606 0.29563,-0.29562 0.2941,-0.82742 -0.0605,-1.12305 l -10.28711,-11.64648 c 0.62903,-0.64999 1.2305,-1.31753 1.82032,-1.99219 -0.10911,0.005 -0.19215,0.0276 -0.23828,0.0742 -0.61831,0.62549 -0.93567,0.94201 -1.36329,1.37305 10.03506,-10.56363 16.80099,-24.21697 18.73633,-39.50977 v -0.004 c 0.0471,0.0523 0.13555,0.11185 0.22461,0.17187 0.10946,-0.79178 0.1974,-1.59855 0.28516,-2.40625 7.6e-4,7e-4 0.001,0.001 0.002,0.002 0.0307,-0.29304 0.076,-0.57502 0.10352,-0.87109 z m -19.08008,1.56836 c -0.0882,1.10886 -0.19963,2.21005 -0.33789,3.30274 -0.048,-0.0558 -0.0787,-0.10899 -0.0723,-0.1543 0.17298,-1.21066 0.3007,-2.20114 0.41016,-3.14844 z m -119.33008,1.625 25.69922,2.40625 -15.75195,19.86524 c -5.08585,-6.35813 -8.59687,-13.93429 -9.94727,-22.27149 z m 95.46094,0.83985 c -1.54963,8.27923 -5.13898,15.85428 -10.36719,22.08593 l -15.62304,-19.67382 z m -142.736329,8.04492 c 2.494936,14.02012 8.042088,27.04018 15.939453,38.29687 l -4.05664,2.87891 C 73.460473,211.19017 67.699331,197.5222 65.048828,182.73828 Z m 190.240239,0.043 4.77148,0.86132 c -2.60975,14.74522 -8.4545,28.43015 -16.77344,40.28907 l -3.94531,-2.74414 c 7.91333,-11.28711 13.46586,-24.34499 15.94727,-38.40625 z m -106.35352,4.81445 2.41211,25.98828 c -7.29032,-1.34431 -13.99429,-4.35928 -19.79297,-8.53516 -0.003,-0.002 -0.006,-0.005 -0.01,-0.008 -0.78847,-0.57941 -1.55996,-1.1796 -2.31055,-1.80273 z m 21.62695,0.32812 19.84961,15.74024 c -6.34848,5.10986 -13.9234,8.5815 -22.25976,10.01367 z m -65.6875,57.11524 c 11.25721,7.89771 24.27593,13.44468 38.29688,15.93945 l -0.8125,4.81446 c -14.78484,-2.65067 -28.45333,-8.41471 -40.30664,-16.70118 z m 110.59766,0.0156 2.74414,3.94532 c -11.80002,8.31901 -25.48478,14.10716 -40.28906,16.77539 l -0.86133,-4.77149 c 14.06219,-2.48156 27.11863,-8.03507 38.40625,-15.94922 z"
     transform="matrix(1.6913306,0,0,1.6913306,397.90564,740.83162)" /><path
     style="color:#000000;font-style:normal;font-variant:normal;font-weight:normal;font-stretch:normal;font-size:medium;line-height:normal;font-family:sans-serif;font-variant-ligatures:normal;font-variant-position:normal;font-variant-caps:normal;font-variant-numeric:normal;font-variant-alternates:normal;font-variant-east-asian:normal;font-feature-settings:normal;font-variation-settings:normal;text-indent:0;text-align:start;text-decoration:none;text-decoration-line:none;text-decoration-style:solid;text-decoration-color:#000000;letter-spacing:normal;word-spacing:normal;text-transform:none;writing-mode:lr-tb;direction:ltr;text-orientation:mixed;dominant-baseline:auto;baseline-shift:baseline;text-anchor:start;white-space:normal;shape-padding:0;shape-margin:0;inline-size:0;clip-rule:nonzero;display:inline;overflow:visible;visibility:visible;isolation:auto;mix-blend-mode:normal;color-interpolation:sRGB;color-interpolation-filters:linearRGB;solid-color:#000000;solid-opacity:1;vector-effect:none;fill:#000000;fill-opacity:1;fill-rule:nonzero;stroke:none;stroke-width:1;stroke-linecap:butt;stroke-linejoin:miter;stroke-miterlimit:4;stroke-dasharray:none;stroke-dashoffset:0;stroke-opacity:1;color-rendering:auto;image-rendering:auto;shape-rendering:auto;text-rendering:auto;enable-background:accumulate;stop-color:#000000"
     d="m 688.4752,1019.9012 c 0,6.3513 -5.14873,11.5 -11.5,11.5 -6.35127,0 -11.5,-5.1487 -11.5,-11.5 0,-6.3513 5.14873,-11.5 11.5,-11.5 6.35127,0 11.5,5.1487 11.5,11.5 z"
     id="path146"
     inkscape:label="Midtercirkel" /><circle
     style="display:inline;opacity:0;fill:none;stroke:#000000;stroke-width:1.71852;stroke-miterlimit:4;stroke-dasharray:none"
     id="path973"
     cx="676.98175"
     cy="1019.9048"
     inkscape:label="logoguide"
     r="92.411301" /><text
     xml:space="preserve"
     style="font-style:normal;font-variant:normal;font-weight:bold;font-stretch:normal;font-size:31.5715px;line-height:1.25;font-family:jsMath-cmbx10;-inkscape-font-specification:'jsMath-cmbx10, Bold';font-variant-ligatures:normal;font-variant-caps:normal;font-variant-numeric:normal;font-variant-east-asian:normal;letter-spacing:6.84989px;word-spacing:0px;display:inline;opacity:1;fill:#115b00;fill-opacity:1;stroke-width:1.69133"
     id="text64"
     inkscape:label="logo"
     transform="rotate(-9.5257594,677.20059,1017.6441)"><textPath
       xlink:href="#path973"
       id="textPath94"><tspan
         id="tspan62"
         style="font-style:normal;font-variant:normal;font-weight:bold;font-stretch:normal;font-size:31.5715px;font-family:jsMath-cmbx10;-inkscape-font-specification:'jsMath-cmbx10, Bold';font-variant-ligatures:normal;font-variant-caps:normal;font-variant-numeric:normal;font-variant-east-asian:normal;fill:#115b00;fill-opacity:1;stroke-width:1.69133">COLD          SOUP        DIVES</tspan></textPath></text><path
     style="display:none;fill:#0000ff;stroke:#0000ff;stroke-width:1.69133px;stroke-linecap:butt;stroke-linejoin:miter;stroke-opacity:1"
     d="m 579.35695,963.54128 195.2365,112.71982"
     id="path96080"
     inkscape:label="120" /><path
     style="display:none;fill:#0000ff;stroke:#0000ff;stroke-width:1.69133px;stroke-linecap:butt;stroke-linejoin:miter;stroke-opacity:1"
     d="M 579.35695,1076.2611 774.59345,963.54128"
     id="path96198"
     inkscape:label="240" /><path
     id="path1045"
     style="color:#000000;font-style:normal;font-variant:normal;font-weight:normal;font-stretch:normal;font-size:medium;line-height:normal;font-family:sans-serif;font-variant-ligatures:normal;font-variant-position:normal;font-variant-caps:normal;font-variant-numeric:normal;font-variant-alternates:normal;font-variant-east-asian:normal;font-feature-settings:normal;font-variation-settings:normal;text-indent:0;text-align:start;text-decoration:none;text-decoration-line:none;text-decoration-style:solid;text-decoration-color:#000000;letter-spacing:normal;word-spacing:normal;text-transform:none;writing-mode:lr-tb;direction:ltr;text-orientation:mixed;dominant-baseline:auto;baseline-shift:baseline;text-anchor:start;white-space:normal;shape-padding:0;shape-margin:0;inline-size:0;clip-rule:nonzero;display:inline;overflow:visible;visibility:visible;opacity:1;isolation:auto;mix-blend-mode:normal;color-interpolation:sRGB;color-interpolation-filters:linearRGB;solid-color:#000000;solid-opacity:1;vector-effect:none;fill:#000000;fill-opacity:1;fill-rule:nonzero;stroke:none;stroke-width:0.601325;stroke-linecap:butt;stroke-linejoin:miter;stroke-miterlimit:4;stroke-dasharray:none;stroke-dashoffset:0;stroke-opacity:1;color-rendering:auto;image-rendering:auto;shape-rendering:auto;text-rendering:auto;enable-background:accumulate;stop-color:#000000;stop-opacity:1"
     inkscape:label="radiallines"
     d="m 144.86523,45.574219 -1.79101,0.316406 3.3125,18.789063 c 0.5957,-0.10983 1.19369,-0.211115 1.79297,-0.310547 z m 40.25196,0.103515 -3.29492,18.691407 c 0.598,0.09923 1.19462,0.20096 1.78906,0.310547 l 3.29492,-18.6875 z m 20.59179,4.808594 -6.66796,18.320313 c 0.57386,0.203085 1.14574,0.410034 1.71484,0.623047 l 6.66797,-18.320313 z m -81.27539,0.398438 -1.70898,0.621093 6.52344,17.921875 c 0.56717,-0.212265 1.13707,-0.418687 1.70898,-0.621093 z m -19.20117,8.777343 -1.57422,0.910157 9.54102,16.527343 c 0.52234,-0.30849 1.04595,-0.614671 1.57422,-0.914062 z m 119.53516,0 -9.54102,16.523438 c 0.52827,0.299391 1.05188,0.605572 1.57422,0.914062 L 226.3418,60.572266 Z M 87.849609,71.642578 86.457031,72.808594 98.732422,87.4375 c 0.460227,-0.393584 0.919456,-0.786395 1.386718,-1.171875 z m 154.300781,0 -12.26953,14.623047 c 0.46726,0.38548 0.92649,0.778291 1.38672,1.171875 L 243.54297,72.808594 Z M 72.810547,86.457031 71.642578,87.849609 86.265625,100.11914 c 0.385749,-0.467586 0.779964,-0.926176 1.173828,-1.386718 z m 184.378903,0 -14.6289,12.275391 c 0.39386,0.460542 0.78808,0.919132 1.17383,1.386718 L 258.35742,87.849609 Z M 60.572266,103.6582 l -0.910157,1.57422 16.523438,9.54102 c 0.299392,-0.52827 0.605571,-1.05188 0.914062,-1.57422 z m 208.855464,0 -16.52734,9.54102 c 0.30804,0.52158 0.61314,1.04478 0.91211,1.57226 l 16.52344,-9.53906 z m -217.921871,19.06641 -0.621093,1.70898 17.921875,6.52344 c 0.202407,-0.57191 0.408827,-1.14181 0.621093,-1.70898 z m 226.986331,0 -17.91992,6.52344 c 0.21226,0.56717 0.41868,1.13707 0.62109,1.70898 l 17.92187,-6.52344 z m -232.601565,20.34961 -0.316406,1.79101 18.794922,3.31446 c 0.09943,-0.59928 0.200716,-1.19727 0.310547,-1.79297 z m 238.220705,0 -18.79102,3.31445 c 0.10971,0.59507 0.21122,1.19237 0.31055,1.79102 l 18.79492,-3.31446 z m -219.742189,38.74609 -18.794922,3.31446 0.316406,1.79101 18.789063,-3.3125 c -0.109831,-0.5957 -0.211115,-1.19369 -0.310547,-1.79297 z m 201.261719,0 c -0.0994,0.59928 -0.20072,1.19727 -0.31055,1.79297 l 18.79102,3.3125 0.31445,-1.79101 z m -196.822266,17.22461 -17.923828,6.52344 0.621093,1.70703 17.921875,-6.52344 c -0.211976,-0.5664 -0.416997,-1.1359 -0.61914,-1.70703 z m 192.382816,0 c -0.20215,0.57113 -0.40717,1.14063 -0.61914,1.70703 l 17.91992,6.52344 0.62304,-1.70703 z m -185.005863,16.18164 -16.523438,9.54102 0.910157,1.57422 16.527343,-9.54102 c -0.308491,-0.52234 -0.61467,-1.04595 -0.914062,-1.57422 z m 177.626953,0.002 c -0.29897,0.52748 -0.60407,1.05068 -0.91211,1.57226 l 16.52734,9.54102 0.90821,-1.57422 z m -167.546875,14.65234 -14.623047,12.26953 1.167969,1.39258 14.628906,-12.27539 c -0.393864,-0.46054 -0.788079,-0.91913 -1.173828,-1.38672 z m 157.468755,0 c -0.38575,0.46759 -0.77997,0.92618 -1.17383,1.38672 l 14.6289,12.27539 1.16797,-1.39258 z m -145.001958,12.67969 -12.275391,14.6289 1.392578,1.16797 12.269531,-14.62304 c -0.467586,-0.38575 -0.926176,-0.77997 -1.386718,-1.17383 z m 132.535158,0 c -0.46054,0.39386 -0.91913,0.78808 -1.38672,1.17383 l 12.26953,14.62304 1.39258,-1.16797 z m -118.06836,10.33984 -9.54102,16.52734 1.57422,0.90821 9.53906,-16.52344 c -0.52748,-0.29897 -1.05068,-0.60407 -1.57226,-0.91211 z m 103.60156,0 c -0.52158,0.30804 -1.04478,0.61314 -1.57226,0.91211 l 9.53906,16.52344 1.57422,-0.90821 z m -87.55469,7.67188 -6.66797,18.31835 1.7129,0.625 6.66796,-18.32226 c -0.57307,-0.2028 -1.14457,-0.40839 -1.71289,-0.62109 z m 71.50586,0 c -0.5664,0.21197 -1.1359,0.41699 -1.70703,0.61914 l 6.52344,17.92382 1.70703,-0.62304 z m -54.36328,4.74804 -3.29492,18.6875 1.78906,0.31446 3.29492,-18.69141 c -0.598,-0.0992 -1.19462,-0.20096 -1.78906,-0.31055 z m 37.22266,0 c -0.59507,0.10971 -1.19238,0.21122 -1.79102,0.31055 l 3.31446,18.79492 1.78906,-0.31445 z"
     transform="matrix(1.6913306,0,0,1.6913306,397.90564,740.83162)" /><path
     style="opacity:0.586067;fill:#ff0000;stroke:#ff0000;stroke-width:8.14712;stroke-linecap:butt;stroke-linejoin:miter;stroke-miterlimit:4;stroke-dasharray:none;stroke-opacity:1"
     d="M 515.36955,1036.5476 838.58085,858.29557"
     id="path162"
     sodipodi:nodetypes="cc" /><path
     style="opacity:0.586067;fill:#ff0000;stroke:#ff0000;stroke-width:8.14712;stroke-linecap:butt;stroke-linejoin:miter;stroke-miterlimit:4;stroke-dasharray:none;stroke-opacity:1"
     d="m 515.36955,858.29557 323.2113,178.25203"
     id="path995"
     sodipodi:nodetypes="cc" /></g>
</svg>
